<svg width="411" height="366" viewBox="0 0 411 366" fill="none" xmlns="http://www.w3.org/2000/svg">
<path d="M365.434 211.719L330.774 197.484" stroke="#007AFF" stroke-width="0.875454" stroke-linecap="round" stroke-linejoin="round"/>
<path d="M327.257 197.75C327.71 198.372 327.967 199.116 327.993 199.885C328.02 200.654 327.815 201.414 327.406 202.066C326.56 203.354 325.388 204.396 324.009 205.086C320.275 207.203 316.045 208.29 311.753 208.238C317.871 208.454 323.859 210.062 329.262 212.939C330.418 213.534 331.652 214.331 331.941 215.565C332.379 217.491 330.453 219.067 328.737 220.065C319.967 225.116 310.416 228.667 300.477 230.571C309.363 231.779 318.31 232.996 326.741 235.955C327.756 236.314 328.973 237.023 328.807 238.082C328.64 239.141 327.52 239.413 326.574 239.597L311.63 242.573C314.933 242.778 318.204 243.345 321.383 244.263C324.586 245.198 327.395 247.153 329.385 249.831C331.258 252.553 331.818 256.3 330.26 259.224" stroke="#007AFF" stroke-width="0.875454" stroke-linecap="round" stroke-linejoin="round"/>
<path d="M294.578 190.379H232.342" stroke="#007AFF" stroke-width="0.875454" stroke-linecap="round" stroke-linejoin="round"/>
<path d="M221.891 54.6215C219.541 54.3778 217.178 54.296 214.817 54.3764C214.817 51.9427 214.975 49.5002 214.922 47.0664" stroke="#111231" stroke-width="0.875454" stroke-linecap="round" stroke-linejoin="round"/>
<path d="M202.012 49.1992L201.793 54.7671C199.587 54.7671 197.564 54.8809 195.358 54.8634" stroke="#111231" stroke-width="0.875454" stroke-linecap="round" stroke-linejoin="round"/>
<path d="M330.619 259.84L369.77 244.992" stroke="#007AFF" stroke-width="0.875454" stroke-linecap="round" stroke-linejoin="round"/>
<path d="M213.117 259.766H197.552" stroke="#007AFF" stroke-width="0.875454" stroke-linecap="round" stroke-linejoin="round"/>
<path d="M309.426 242.126L175.14 242.047" stroke="#007AFF" stroke-width="0.875454" stroke-linecap="round" stroke-linejoin="round"/>
<path d="M218.449 208.711H163.147" stroke="#007AFF" stroke-width="0.875454" stroke-linecap="round" stroke-linejoin="round"/>
<path d="M110.309 208.012H19.5678" stroke="#007AFF" stroke-width="0.875454" stroke-linecap="round" stroke-linejoin="round"/>
<path d="M114.25 259.996H28.3855" stroke="#007AFF" stroke-width="0.875454" stroke-linecap="round" stroke-linejoin="round"/>
<path d="M107.523 191.066H0.998239V261.278" stroke="#007AFF" stroke-width="0.875454" stroke-linecap="round" stroke-linejoin="round"/>
<path d="M266.253 95.4609L302.856 173.376C313.084 170.398 323.568 168.381 334.171 167.353C334.383 167.334 334.595 167.376 334.784 167.474C334.972 167.572 335.129 167.722 335.235 167.906C335.341 168.091 335.392 168.301 335.382 168.514C335.371 168.726 335.301 168.931 335.178 169.104C335.01 169.333 334.813 169.539 334.591 169.717C333.796 170.259 332.905 170.642 331.965 170.846L319.647 174.348" stroke="#111231" stroke-width="0.875454" stroke-linecap="round" stroke-linejoin="round"/>
<path d="M334.261 170.105C335.478 169.912 336.773 169.23 337.929 169.685C339.085 170.14 340.013 171.436 339.592 172.583C339.172 173.73 337.999 174.071 336.966 174.395L322.862 178.571" stroke="#111231" stroke-width="0.875454" stroke-linecap="round" stroke-linejoin="round"/>
<path d="M338.128 174.049C339.003 174.049 340.142 173.524 340.991 173.865C341.422 174.017 341.802 174.287 342.087 174.645C342.372 175.003 342.55 175.433 342.602 175.888C342.591 176.207 342.517 176.521 342.383 176.811C342.249 177.102 342.059 177.362 341.822 177.577C341.342 177.997 340.802 178.342 340.22 178.602C338.639 179.381 337.004 180.045 335.326 180.589" stroke="#111231" stroke-width="0.875454" stroke-linecap="round" stroke-linejoin="round"/>
<path d="M325.59 181.586L339.194 180.29C340.344 180.087 341.527 180.174 342.635 180.544C343.181 180.744 343.635 181.136 343.914 181.647C344.192 182.157 344.276 182.752 344.149 183.319C343.72 184.519 342.223 184.869 340.963 185.07L319.855 187.898C323.133 188.9 326.276 190.299 329.214 192.065C329.897 192.424 330.518 192.891 331.052 193.448C331.355 193.743 331.573 194.113 331.685 194.52C331.797 194.927 331.799 195.357 331.69 195.765C331.581 196.173 331.366 196.545 331.066 196.842C330.767 197.14 330.393 197.352 329.984 197.458C329.136 197.725 328.242 197.815 327.358 197.72C324.245 197.478 321.157 196.99 318.122 196.258C309.788 194.508 301.733 193.632 293.977 190.13C287.499 180.421 251.08 124.646 244.628 114.938" stroke="#111231" stroke-width="0.875454" stroke-linecap="round" stroke-linejoin="round"/>
<path d="M151.539 75.7734C145.907 79.4679 140.45 83.4191 135.168 87.6271" stroke="#111231" stroke-width="0.875454" stroke-linecap="round" stroke-linejoin="round"/>
<path d="M136.863 94.3062C133.099 79.2717 128.937 64.3481 124.379 49.5354C121.753 47.732 119.188 46.2175 116.5 44.4141" stroke="#111231" stroke-width="0.875454" stroke-linecap="round" stroke-linejoin="round"/>
<path d="M158.605 96.3389L136.815 108.087C134.255 109.591 131.537 110.807 128.709 111.712C125.847 112.614 122.765 112.534 119.954 111.484C117.056 110.128 114.756 107.754 113.493 104.813C112.25 101.893 111.447 98.8038 111.112 95.6473C109.212 82.428 110.534 69.4975 111.173 56.2519C105.789 54.3259 100.668 51.8745 95.4152 49.6071C95.0838 48.0058 94.4702 46.4763 93.603 45.0898" stroke="#111231" stroke-width="0.875454" stroke-linecap="round" stroke-linejoin="round"/>
<path d="M51.6577 42.3086H145.883V44.7861H51.6577V42.3086Z" stroke="#111231" stroke-width="0.875454" stroke-linecap="round" stroke-linejoin="round"/>
<path d="M52.1386 42.3127H120.984L120.056 1L54.3011 1.47275L52.1386 42.3127Z" stroke="#111231" stroke-width="0.875454" stroke-linecap="round" stroke-linejoin="round"/>
<path d="M57.0375 39.3663H116.078L115.29 4.70703L58.8935 5.10974L57.0375 39.3663Z" stroke="#111231" stroke-width="0.875454" stroke-linecap="round" stroke-linejoin="round"/>
<path d="M170.574 129.638L165.926 143.111L145.668 104.836" stroke="#111231" stroke-width="0.875454" stroke-linecap="round" stroke-linejoin="round"/>
<path d="M110.598 70.4152C102.762 63.9982 94.3054 57.7562 84.4216 55.5325C74.5377 53.3089 62.8504 56.1016 57.3613 64.6197C53.5619 70.5115 53.2992 77.9617 53.5181 84.974C54.4461 114.739 61.7473 143.813 69.0136 172.66H106.886" stroke="#111231" stroke-width="0.875454" stroke-linecap="round" stroke-linejoin="round"/>
<path d="M220.852 159.607C193.16 155.555 165.23 153.338 137.246 152.971C128.999 152.857 119.737 154.389 113.381 160.088C110.194 162.951 107.559 169.009 107.831 172.117C108.382 178.42 107.944 184.689 108.601 190.992C111.289 216.38 113.206 241.287 114.791 266.797C115.587 279.562 117.601 292.054 118.126 304.827H194.658C183.015 266.806 170.145 228.785 157.294 191.158H232.084C232.688 170.638 233.169 150.248 233.773 129.719" stroke="#111231" stroke-width="0.875454" stroke-linecap="round" stroke-linejoin="round"/>
<path d="M233.156 136.527H169.257" stroke="#111231" stroke-width="0.875454" stroke-linecap="round" stroke-linejoin="round"/>
<path d="M222.764 135.914C224.818 149.228 225.988 162.664 226.266 176.132H136.348L167.698 304.824" stroke="#111231" stroke-width="0.875454" stroke-linecap="round" stroke-linejoin="round"/>
<path d="M150.215 152.505L79.3031 67.4805C81.6843 102.744 83.8292 138.996 86.2104 174.286" stroke="#111231" stroke-width="0.875454" stroke-linecap="round" stroke-linejoin="round"/>
<path d="M44.5174 189.556C57.3866 184.119 72.8121 177.956 85.8738 172.992H107.41C107.865 179.182 108.408 185.249 108.863 191.377C107.821 191.377 106.596 191.491 105.545 191.491C104.976 189.74 104.293 187.927 103.724 186.142C103.374 187.84 102.665 189.556 102.324 191.263L44.3948 191.368L44.5174 189.556Z" fill="#111231"/>
<path d="M125.184 153.453L89.8065 86.043" stroke="#111231" stroke-width="0.875454" stroke-linecap="round" stroke-linejoin="round"/>
<path d="M95.6456 12.8532C96.1508 15.0088 96.3016 17.2324 96.0921 19.4366C95.9786 20.5398 95.601 21.5993 94.9915 22.5258C94.382 23.4523 93.5584 24.2184 92.5903 24.7593C90.2616 25.8624 87.3375 24.9957 85.4903 23.2185C83.7181 21.3257 82.5323 18.96 82.0761 16.4075C81.6865 15.0746 81.6443 13.6642 81.9535 12.3104C82.1221 11.6387 82.4946 11.0357 83.0197 10.5843C83.5449 10.1328 84.1969 9.85501 84.8863 9.78906C87.0661 9.78906 88.2568 12.3366 88.5282 14.499C89.176 19.7517 87.5214 25.4159 83.5906 28.9615C79.6598 32.5071 73.409 33.5139 68.8829 30.7124" stroke="#007AFF" stroke-width="0.875454" stroke-linecap="round" stroke-linejoin="round"/>
<path d="M179.299 304.951C183.886 309.724 187.657 315.22 190.461 321.217C187.458 323.09 184.569 325.2 181.566 327.073C178.368 324.919 175.496 322.316 173.039 319.343C174.186 322.845 174.79 326.084 175.972 329.542C156.712 341.221 137.592 354.125 118.376 365.795C118.023 364.721 117.321 363.796 116.38 363.168C127.166 346.692 138.459 329.63 149.245 313.154C148.557 310.445 147.505 307.842 146.119 305.415C156.406 305.712 169.012 304.714 179.299 304.951Z" fill="#111231"/>
<path d="M101.258 242.594H29.777" stroke="#007AFF" stroke-width="0.875454" stroke-linecap="round" stroke-linejoin="round"/>
<path d="M330.082 259.766H253.497" stroke="#007AFF" stroke-width="0.875454" stroke-linecap="round" stroke-linejoin="round"/>
<path d="M243.984 260.461H228.436" stroke="#007AFF" stroke-width="0.875454" stroke-linecap="round" stroke-linejoin="round"/>
<path d="M311.746 208.25H260.926" stroke="#007AFF" stroke-width="0.875454" stroke-linecap="round" stroke-linejoin="round"/>
<path d="M367.131 246.842C381.777 241.87 396.362 235.969 411 230.997C394.997 223.871 378.118 215.606 361.563 209.863C363.21 211.006 364.744 212.305 366.142 213.741C366.669 214.226 367.057 214.843 367.266 215.528C367.475 216.213 367.498 216.941 367.332 217.638C367.166 218.334 366.817 218.974 366.322 219.491C365.827 220.008 365.202 220.383 364.513 220.579C363.107 221.074 361.627 221.325 360.136 221.323L338.451 222.522C346.041 223.485 354.358 224.93 361.957 225.893C363.332 226.068 364.96 226.436 365.459 227.731C365.958 229.027 364.934 230.358 363.953 231.321C360.676 234.51 356.757 236.966 352.458 238.526C355.522 238.123 359.357 237.895 362.228 239.033C365.1 240.171 367.569 243.787 367.131 246.842Z" fill="#111231"/>
<path d="M215.206 49.4131H224.967C225.281 43.6038 224.618 37.7829 223.006 32.1929C221.964 28.5948 220.476 25.023 217.859 22.3528C215.241 19.6827 211.293 18.0807 207.677 19.0437C203.562 20.138 200.927 24.0863 199.054 27.9121C195.837 34.5186 193.765 41.6231 192.926 48.923C195.981 49.1418 198.949 49.2293 202.004 49.4394C199.476 46.6787 197.851 43.2121 197.347 39.5031C196.926 36.7366 196.813 35.2133 197.828 32.5782C198.406 31.0812 198.984 30.7222 200.813 29.4615C201.89 28.7174 203.904 27.7107 204.788 26.7739C207.543 33.615 211.766 39.7682 217.158 44.7995C216.467 45.2285 215.407 45.9814 214.663 46.4104C214.584 47.2071 215.258 48.6077 215.206 49.4131Z" fill="#111231"/>
<path d="M210.02 34.3164H205.844" stroke="#111231" stroke-width="0.875454" stroke-linecap="round" stroke-linejoin="round"/>
<path d="M197.486 32.5713C200.112 32.5188 202.065 34.5411 202.52 37.1587C202.684 38.3038 202.506 39.4719 202.008 40.5158C201.509 41.5597 200.713 42.4325 199.718 43.0242C199.664 43.0544 199.621 43.1022 199.596 43.1597C199.572 43.2172 199.567 43.2812 199.583 43.3416C199.599 43.402 199.635 43.4552 199.685 43.4929C199.735 43.5306 199.796 43.5505 199.858 43.5495C201.476 43.5687 203.052 43.0412 204.332 42.0524" stroke="#111231" stroke-width="0.875454" stroke-linecap="round" stroke-linejoin="round"/>
<path d="M206.914 44.8242C206.603 45.5088 206.038 46.0456 205.338 46.3212C204.642 46.6054 203.863 46.6054 203.167 46.3212" stroke="#111231" stroke-width="0.875454" stroke-linecap="round" stroke-linejoin="round"/>
<path d="M210.738 37.6561C210.497 37.1344 210.107 36.6956 209.617 36.3944C209.127 36.0932 208.56 35.943 207.985 35.9626C207.411 35.9823 206.855 36.1708 206.387 36.5047C205.919 36.8385 205.56 37.303 205.354 37.8399" stroke="#111231" stroke-width="0.875454" stroke-linecap="round" stroke-linejoin="round"/>
<path d="M202.086 37.27C201.887 36.7329 201.534 36.267 201.07 35.9313C200.606 35.5956 200.053 35.4053 199.48 35.3847C198.908 35.3641 198.343 35.514 197.856 35.8154C197.369 36.1167 196.982 36.5561 196.746 37.0775H196.956" stroke="#111231" stroke-width="0.875454" stroke-linecap="round" stroke-linejoin="round"/>
<path d="M199.344 37.4368C198.745 37.4368 198.259 36.9507 198.259 36.3512C198.259 35.7517 198.745 35.2656 199.344 35.2656C199.944 35.2656 200.43 35.7517 200.43 36.3512C200.43 36.9507 199.944 37.4368 199.344 37.4368Z" fill="#111231"/>
<path d="M208.168 38.4446C207.569 38.4446 207.083 37.9585 207.083 37.359C207.083 36.7595 207.569 36.2734 208.168 36.2734C208.768 36.2734 209.254 36.7595 209.254 37.359C209.254 37.9585 208.768 38.4446 208.168 38.4446Z" fill="#111231"/>
<path d="M199.244 44.8692C199.724 46.2084 200.532 47.4055 201.595 48.3504C202.658 49.2954 203.942 49.9578 205.328 50.2769C206.714 50.596 208.158 50.5614 209.528 50.1764C210.897 49.7913 212.147 49.0681 213.164 48.0733C212.268 50.1581 210.64 51.8431 208.587 52.8106C206.534 53.7782 204.198 53.9615 202.02 53.326C202 51.9523 201.871 50.5823 201.634 49.229C201.03 49.1405 200.441 48.9696 199.883 48.7212C199.326 48.4661 198.89 48.0047 198.666 47.4343C198.577 47.1153 198.536 46.7848 198.544 46.4538L198.465 43.6523C198.596 43.8537 199.131 44.6241 199.244 44.8692Z" fill="#111231"/>
<path d="M150.11 75.1084C156.081 68.6301 164.179 63.2023 171.734 58.6499C179.208 54.0793 188.151 52.5502 196.72 54.3777C196.475 56.7335 196.893 59.1109 197.928 61.2413C198.963 63.3717 200.573 65.1702 202.576 66.434C204.579 67.6978 206.896 68.3764 209.264 68.3932C211.633 68.41 213.959 67.7643 215.98 66.529C219.989 64.0953 221.836 58.7375 221.434 54.0626C232.709 53.1871 243.591 59.4641 251.059 67.956C258.527 76.4479 263.202 86.9708 267.754 97.3274C260.365 104.655 251.996 110.967 243.39 116.85C240.93 112.473 237.962 108.096 235.511 103.788C234.399 112.403 234.872 121.814 234.933 130.498C213.581 130.735 191.16 130.148 169.799 130.385C172.426 118.566 174.115 106.572 176.759 94.7537C171.366 97.5814 166.184 100.138 160.791 102.965C157.858 94.1846 153.77 83.5653 150.11 75.1084Z" fill="#FDBD4A"/>
<path d="M236.52 107.455L234.051 97.5625" stroke="#111231" stroke-width="0.875454" stroke-linecap="round" stroke-linejoin="round"/>
<path d="M176.889 94.6398L180.102 88.2227" stroke="#111231" stroke-width="0.875454" stroke-linecap="round" stroke-linejoin="round"/>
</svg>
